<svg xmlns="http://www.w3.org/2000/svg">
    <symbol id="UsersThree" viewBox="0 0 16 16">
        <path fill-rule="nonzero" d="M3.68726 2.76918C3.00369 2.77619 2.31788 3.05605 1.8208 3.65761C0.919321 4.74857 1.17576 6.24775 2.08557 7.09572C1.40673 7.38504 0.802933 7.84404 0.349488 8.4507C0.310181 8.50329 0.281619 8.56312 0.265432 8.62675C0.249245 8.69038 0.24575 8.75658 0.255147 8.82157C0.264544 8.88656 0.286648 8.94905 0.320199 9.00549C0.353749 9.06194 0.398088 9.11122 0.450684 9.15053C0.503281 9.18983 0.563104 9.21839 0.626738 9.23458C0.690373 9.25077 0.756572 9.25426 0.821558 9.24487C0.886543 9.23547 0.949041 9.21337 1.00548 9.17981C1.06193 9.14626 1.11121 9.10193 1.15051 9.04933C1.76315 8.2297 2.72586 7.74834 3.74915 7.75001C3.74907 7.75005 3.74923 7.74997 3.74915 7.75001C3.74953 7.75001 3.75011 7.75001 3.75049 7.75001C3.87664 7.74769 3.99725 7.69777 4.08814 7.61024C4.09539 7.60337 4.10243 7.59629 4.10925 7.589C4.19691 7.49831 4.24706 7.37783 4.24963 7.25172C4.24951 7.252 4.24976 7.25144 4.24963 7.25172C4.24959 7.25147 4.24992 7.25038 4.24988 7.25013C4.24984 7.25034 4.24992 7.24993 4.24988 7.25013C4.24976 7.24984 4.24976 7.24894 4.24963 7.24865C4.24718 7.12237 4.19703 7.0017 4.10925 6.91088C4.10254 6.90377 4.09562 6.89685 4.0885 6.89013C3.99767 6.80248 3.87706 6.75243 3.75086 6.75001C3.75044 6.75001 3.75005 6.75014 3.74963 6.75014C3.74967 6.75018 3.74959 6.7501 3.74963 6.75014C2.44509 6.75147 1.76078 5.30012 2.59168 4.29457C3.42258 3.28902 4.97671 3.68735 5.22131 4.96876C5.23363 5.03326 5.25853 5.09471 5.29459 5.14958C5.33066 5.20446 5.37718 5.25169 5.4315 5.28859C5.48582 5.32549 5.54687 5.35132 5.61118 5.36462C5.67548 5.37792 5.74178 5.37843 5.80628 5.3661C5.93651 5.34123 6.05154 5.26564 6.12605 5.15596C6.20057 5.04629 6.22847 4.91151 6.20361 4.78126C5.95974 3.50367 4.82653 2.7575 3.68726 2.76918Z M12.3127 2.76918C11.1735 2.7575 10.0403 3.50367 9.79639 4.78126C9.77154 4.91151 9.79943 5.04629 9.87395 5.15596C9.94846 5.26564 10.0635 5.34123 10.1937 5.3661C10.2582 5.37843 10.3245 5.37792 10.3888 5.36462C10.4531 5.35132 10.5142 5.32549 10.5685 5.28859C10.6228 5.25169 10.6693 5.20446 10.7054 5.14958C10.7415 5.09471 10.7664 5.03326 10.7787 4.96876C11.0233 3.68735 12.5774 3.28902 13.4083 4.29457C14.2392 5.30012 13.555 6.75134 12.2505 6.75001C12.2505 6.74997 12.2504 6.75005 12.2505 6.75001C12.25 6.75001 12.2496 6.75001 12.2491 6.75001C12.1871 6.76292 12.1282 6.78748 12.0753 6.8224C12.0115 6.83534 11.9508 6.86064 11.8966 6.89686C11.8603 6.95112 11.835 7.01196 11.8221 7.07594C11.7873 7.12872 11.7629 7.18762 11.75 7.24952C11.75 7.24931 11.7501 7.24973 11.75 7.24952C11.75 7.24976 11.7501 7.25064 11.75 7.25088C11.7629 7.31289 11.7875 7.37187 11.8224 7.42471C11.8353 7.48856 11.8606 7.54927 11.8969 7.60342C11.9511 7.63969 12.0119 7.66499 12.0759 7.67788C12.1287 7.71269 12.1876 7.73717 12.2495 7.75003C12.2499 7.75003 12.2502 7.7499 12.2506 7.7499C12.2505 7.74986 12.2507 7.74994 12.2506 7.7499C13.2738 7.7481 14.237 8.22964 14.8495 9.04934C14.8888 9.10194 14.9381 9.14628 14.9945 9.17983C15.051 9.21338 15.1135 9.23548 15.1785 9.24488C15.2434 9.25428 15.3096 9.25078 15.3733 9.2346C15.4369 9.21841 15.4967 9.18985 15.5493 9.15054C15.6019 9.11123 15.6463 9.06195 15.6798 9.00551C15.7134 8.94907 15.7355 8.88657 15.7449 8.82158C15.7543 8.7566 15.7508 8.6904 15.7346 8.62676C15.7184 8.56313 15.6898 8.50331 15.6505 8.45071C15.1971 7.844 14.5934 7.38493 13.9146 7.09561C14.8243 6.24762 15.0806 4.74853 14.1792 3.65762C13.6821 3.05606 12.9962 2.77619 12.3127 2.76918Z M8 5.75001C6.34908 5.75001 5 7.0991 5 8.75001C5 9.72266 5.47549 10.5819 6.19788 11.1309C5.23485 11.5518 4.42849 12.3022 3.95068 13.2808C3.92187 13.3398 3.90497 13.4039 3.90093 13.4694C3.8969 13.535 3.90582 13.6007 3.92717 13.6628C3.94853 13.7249 3.98191 13.7821 4.0254 13.8313C4.0689 13.8805 4.12165 13.9207 4.18067 13.9495C4.29982 14.0076 4.4372 14.0161 4.56258 13.9729C4.68796 13.9298 4.79107 13.8386 4.84924 13.7195C5.43767 12.5144 6.65894 11.7517 8 11.7517C9.34106 11.7517 10.5623 12.5144 11.1508 13.7195C11.2089 13.8386 11.312 13.9298 11.4374 13.9729C11.5628 14.0161 11.7002 14.0076 11.8193 13.9495C11.8783 13.9207 11.9311 13.8805 11.9746 13.8313C12.0181 13.7821 12.0515 13.7249 12.0728 13.6628C12.0942 13.6007 12.1031 13.535 12.0991 13.4694C12.095 13.4039 12.0781 13.3398 12.0493 13.2808C11.5715 12.3022 10.7652 11.5518 9.80212 11.1309C10.5245 10.5819 11 9.72266 11 8.75001C11 7.0991 9.65092 5.75001 8 5.75001ZM8 6.75001C9.11046 6.75001 10 7.63956 10 8.75001C10 9.86047 9.11046 10.75 8 10.75C6.88955 10.75 6 9.86047 6 8.75001C6 7.63956 6.88955 6.75001 8 6.75001Z" />
    </symbol>
    <symbol id="BookOpen" viewBox="0 0 16 16">
        <path fill-rule="nonzero" d="M2 3C1.45364 3 1 3.45364 1 4V12C1 12.5464 1.45364 13 2 13H6C6.398 13 6.77926 13.1579 7.06067 13.4393C7.34212 13.7207 7.50001 14.102 7.5 14.5C7.50186 14.6314 7.55535 14.7568 7.64892 14.849C7.74249 14.9413 7.8686 14.993 8 14.993C8.1314 14.993 8.25751 14.9413 8.35108 14.849C8.44465 14.7568 8.49814 14.6314 8.5 14.5V5.5C8.50013 4.12514 7.37486 2.99987 6 3H2ZM2 4H6C6.83436 3.99992 7.50008 4.66564 7.5 5.5V12.5127C7.06877 12.1874 6.54629 12 6 12H2V4Z M10 3C8.62514 2.99987 7.49987 4.12514 7.5 5.5C7.5 5.63261 7.55268 5.75979 7.64645 5.85355C7.74021 5.94732 7.86739 6 8 6C8.13261 6 8.25979 5.94732 8.35355 5.85355C8.44732 5.75979 8.5 5.63261 8.5 5.5C8.49994 4.66564 9.16564 3.99992 10 4H14V12H10C9.33719 12 8.70097 12.2635 8.2323 12.7322C7.76355 13.2009 7.49998 13.8371 7.5 14.5C7.5 14.6326 7.55268 14.7598 7.64645 14.8536C7.74021 14.9473 7.86739 15 8 15C8.13261 15 8.25979 14.9473 8.35355 14.8536C8.44732 14.7598 8.5 14.6326 8.5 14.5C8.49999 14.102 8.65788 13.7207 8.93933 13.4393C9.22074 13.1579 9.602 13 10 13H14C14.5464 13 15 12.5464 15 12V4C15 3.45364 14.5464 3 14 3H10Z" />
    </symbol>
    <symbol id="ShoppingBag" viewBox="0 0 16 16">
        <path fill-rule="nonzero" d="M5.5 6.5C5.36739 6.5 5.24021 6.55268 5.14645 6.64645C5.05268 6.74021 5 6.86739 5 7C4.99999 7.79543 5.31621 8.55876 5.87866 9.12122C7.04599 10.2888 8.95401 10.2888 10.1213 9.12122C10.6838 8.55877 11 7.79544 11 7C11 6.86739 10.9473 6.74021 10.8536 6.64645C10.7598 6.55268 10.6326 6.5 10.5 6.5C10.3674 6.5 10.2402 6.55268 10.1464 6.64645C10.0527 6.74021 10 6.86739 10 7C10 7.53061 9.7894 8.039 9.41418 8.41418C8.62902 9.1995 7.37098 9.1995 6.58582 8.41418C6.2106 8.03899 6 7.53062 6 7C6 6.86739 5.94732 6.74021 5.85355 6.64645C5.75979 6.55268 5.63261 6.5 5.5 6.5Z M2.5 2.5C1.95364 2.5 1.5 2.95364 1.5 3.5V12.5C1.5 13.0464 1.95364 13.5 2.5 13.5H13.5C14.0464 13.5 14.5 13.0464 14.5 12.5V3.5C14.5 2.95364 14.0464 2.5 13.5 2.5H2.5ZM2.5 3.5H13.5V4.5H2.5V3.5ZM2.5 5.5H13.5V12.5H2.5V5.5Z" />
    </symbol>
    <symbol id="UploadSimple" viewBox="0 0 16 16">
        <path fill-rule="nonzero" d="M8 2C7.8674 2.00002 7.74024 2.05271 7.64648 2.14648L5.02148 4.77148C4.92774 4.86525 4.87508 4.99241 4.87508 5.125C4.87508 5.25759 4.92774 5.38475 5.02148 5.47852C5.11525 5.57226 5.24241 5.62492 5.375 5.62492C5.50759 5.62492 5.63475 5.57226 5.72852 5.47852L7.5 3.70703V9.5C7.5 9.63261 7.55268 9.75979 7.64645 9.85355C7.74021 9.94732 7.86739 10 8 10C8.13261 10 8.25979 9.94732 8.35355 9.85355C8.44732 9.75979 8.5 9.63261 8.5 9.5V3.70703L10.2715 5.47852C10.3652 5.57226 10.4924 5.62492 10.625 5.62492C10.7576 5.62492 10.8848 5.57226 10.9785 5.47852C11.0723 5.38475 11.1249 5.25759 11.1249 5.125C11.1249 4.99241 11.0723 4.86525 10.9785 4.77148L8.35352 2.14648C8.34867 2.14437 8.34378 2.14234 8.33887 2.14038C8.24777 2.05235 8.12666 2.00218 8 2Z M2.5 9C2.36739 9 2.24021 9.05268 2.14645 9.14645C2.05268 9.24021 2 9.36739 2 9.5V13C2.00007 13.5463 2.45357 13.9999 2.99988 14C2.99984 14 2.99992 14 2.99988 14H13C13.5464 14 14 13.5464 14 13V9.5C14 9.36739 13.9473 9.24021 13.8536 9.14645C13.7598 9.05268 13.6326 9 13.5 9C13.3674 9 13.2402 9.05268 13.1464 9.14645C13.0527 9.24021 13 9.36739 13 9.5V13H3.00012L3 9.5C3 9.36739 2.94732 9.24021 2.85355 9.14645C2.75978 9.05268 2.63261 9 2.5 9Z" />
    </symbol>
    <symbol id="Plus" viewBox="0 0 16 16">
        <path fill-rule="nonzero" d="M8 2C7.86739 2 7.74021 2.05268 7.64645 2.14645C7.55268 2.24021 7.5 2.36739 7.5 2.5V7.5H2.5C2.36739 7.5 2.24021 7.55268 2.14645 7.64645C2.05268 7.74021 2 7.86739 2 8C2 8.13261 2.05268 8.25979 2.14645 8.35355C2.24021 8.44732 2.36739 8.5 2.5 8.5H7.5V13.5C7.5 13.6326 7.55268 13.7598 7.64645 13.8536C7.74021 13.9473 7.86739 14 8 14C8.13261 14 8.25979 13.9473 8.35355 13.8536C8.44732 13.7598 8.5 13.6326 8.5 13.5V8.5H13.5C13.6326 8.5 13.7598 8.44732 13.8536 8.35355C13.9473 8.25979 14 8.13261 14 8C14 7.86739 13.9473 7.74021 13.8536 7.64645C13.7598 7.55268 13.6326 7.5 13.5 7.5H8.5V2.5C8.5 2.36739 8.44732 2.24021 8.35355 2.14645C8.25979 2.05268 8.13261 2 8 2Z" />
    </symbol>
    <symbol id="ChevronRight" viewBox="0 0 16 16">
        <path fill-rule="nonzero" d="M5.64645 12.3536C5.45118 12.1583 5.45118 11.8417 5.64645 11.6464L9.29289 8L5.64645 4.35355C5.45118 4.15829 5.45118 3.84171 5.64645 3.64645C5.84171 3.45118 6.15829 3.45118 6.35355 3.64645L10.3536 7.64645C10.5488 7.84171 10.5488 8.15829 10.3536 8.35355L6.35355 12.3536C6.15829 12.5488 5.84171 12.5488 5.64645 12.3536Z" />
    </symbol>
</svg>