
<svg xmlns="http://www.w3.org/2000/svg" width="102" height="22.2" style="shape-rendering:geometricprecision" viewBox="0 0 680 148"><path fill="#31353E" d="m272.85 85.2-11.84-31.91a1.5 1.5 0 0 0-2.8 0l-11.84 31.9a1.5 1.5 0 0 0 1.4 2.03h23.67a1.5 1.5 0 0 0 1.4-2.02m5.48 17.93H240.9a1.5 1.5 0 0 0-1.4.98l-7.38 19.85a1.5 1.5 0 0 1-1.4.98H214.5a1.5 1.5 0 0 1-1.4-2.06l37.35-93.02a1.5 1.5 0 0 1 1.4-.94h15.52c.61 0 1.17.37 1.4.94l37.34 93.02a1.5 1.5 0 0 1-1.4 2.06H288.5a1.5 1.5 0 0 1-1.4-.98l-7.38-19.85a1.5 1.5 0 0 0-1.4-.98m35.38-41.56h13.88c.83 0 1.5.67 1.5 1.5v60.37c0 .83-.67 1.5-1.5 1.5H313.7a1.5 1.5 0 0 1-1.5-1.5V63.07c0-.83.68-1.5 1.5-1.5m65.97 14.68c0 .83-.67 1.5-1.5 1.5h-.42c-6.86 0-11.9 1.65-15.1 4.94-3.2 3.3-4.8 8.74-4.8 16.33v24.42c0 .83-.66 1.5-1.5 1.5h-13.73a1.5 1.5 0 0 1-1.5-1.5V63.07c0-.83.67-1.5 1.5-1.5h13.6c.83 0 1.5.67 1.5 1.5V75h.28c1.64-4.94 4.25-8.73 7.81-11.38 3.57-2.66 7.96-3.98 13.17-3.98h.69v16.6zm37.93-.55c-.83 0-1.5.67-1.5 1.5v25.1c0 2.57.5 4.4 1.5 5.5 1.01 1.1 2.75 1.64 5.22 1.64h1.38c.83 0 1.5.67 1.5 1.5v12.64c0 .83-.67 1.5-1.5 1.5h-5.9c-6.14 0-10.84-1.58-14.14-4.73-3.29-3.16-4.94-7.84-4.94-14.06v-29.1c0-.82-.67-1.5-1.5-1.5h-8.65a1.5 1.5 0 0 1-1.5-1.5V63.08c0-.83.67-1.5 1.5-1.5h8.65c.83 0 1.5-.67 1.5-1.5V37.69c0-.83.68-1.5 1.5-1.5h13.88c.83 0 1.5.67 1.5 1.5v22.38c0 .83.67 1.5 1.5 1.5h10.03c.83 0 1.5.67 1.5 1.5V74.2c0 .83-.67 1.5-1.5 1.5H417.6zm63.52 30.45c3.15-3.3 4.73-7.59 4.73-12.9 0-5.3-1.58-9.6-4.73-12.89-3.16-3.3-7.3-4.94-12.42-4.94s-9.25 1.65-12.41 4.94c-3.15 3.3-4.73 7.6-4.73 12.9 0 5.3 1.58 9.6 4.73 12.89 3.16 3.3 7.3 4.94 12.41 4.94 5.13 0 9.26-1.65 12.42-4.94m-32.03 16.87a28.16 28.16 0 0 1-11.04-11.59c-2.7-5.07-4.05-11.13-4.05-18.18 0-7.04 1.35-13.1 4.05-18.17a28.17 28.17 0 0 1 11.04-11.6 30.54 30.54 0 0 1 15.36-3.97c4.94 0 9.17.96 12.7 2.88a22.08 22.08 0 0 1 8.43 8.1h.27v-7.42c0-.83.67-1.5 1.5-1.5h13.74c.83 0 1.5.67 1.5 1.5v60.37c0 .83-.67 1.5-1.5 1.5h-13.74a1.5 1.5 0 0 1-1.5-1.5v-7.41h-.27a22.06 22.06 0 0 1-8.44 8.09c-3.52 1.92-7.75 2.88-12.69 2.88-5.58 0-10.7-1.33-15.36-3.98m110.62-16.87c3.15-3.3 4.73-7.59 4.73-12.9 0-5.3-1.58-9.6-4.73-12.89-3.16-3.3-7.3-4.94-12.42-4.94s-9.25 1.65-12.4 4.94c-3.16 3.3-4.74 7.6-4.74 12.9 0 5.3 1.58 9.6 4.73 12.89 3.16 3.3 7.3 4.94 12.41 4.94 5.13 0 9.26-1.65 12.42-4.94m-20.85 17.97a22.03 22.03 0 0 1-8.44-8.1h-.27v7.42c0 .83-.67 1.5-1.5 1.5h-13.87a1.5 1.5 0 0 1-1.5-1.5V30.42c0-.83.67-1.5 1.5-1.5h13.87c.83 0 1.5.67 1.5 1.5v40.06h.27a22.04 22.04 0 0 1 8.44-8.09c3.52-1.92 7.75-2.88 12.69-2.88 5.58 0 10.7 1.33 15.36 3.98a28.19 28.19 0 0 1 11.04 11.59c2.7 5.07 4.05 11.13 4.05 18.17 0 7.05-1.35 13.1-4.05 18.18a28.17 28.17 0 0 1-11.04 11.6 30.55 30.55 0 0 1-15.36 3.97c-4.94 0-9.17-.96-12.7-2.88m66.52.82H591.5a1.5 1.5 0 0 1-1.5-1.5V30.42c0-.83.67-1.5 1.5-1.5h13.87c.83 0 1.5.67 1.5 1.5v93.02c0 .83-.67 1.5-1.5 1.5m32.72-48.7c-2.3 1.8-3.85 4.39-4.65 7.78a1.5 1.5 0 0 0 1.46 1.83h26.4a1.5 1.5 0 0 0 1.5-1.73 12.4 12.4 0 0 0-4.13-7.67c-2.6-2.24-6.01-3.36-10.22-3.36-4.2 0-7.66 1.05-10.36 3.16m33.82-7.9c5.4 5.9 8.09 14.25 8.09 25.04v1.8c0 .82-.67 1.5-1.5 1.5h-44.1c-.94 0-1.65.84-1.49 1.76.7 4 2.48 7.2 5.32 9.55 3.25 2.7 7.34 4.05 12.28 4.05 6.37 0 12.27-2.49 17.7-7.47a1.5 1.5 0 0 1 2.23.26l6.74 9.68a1.5 1.5 0 0 1-.23 1.99 49.67 49.67 0 0 1-10.94 7.27c-4.4 2.14-9.56 3.22-15.5 3.22-6.86 0-12.85-1.4-17.97-4.18a29.6 29.6 0 0 1-11.94-11.8c-2.83-5.08-4.25-10.95-4.25-17.63 0-6.67 1.37-12.57 4.12-17.7a29.56 29.56 0 0 1 11.52-11.93c4.94-2.83 10.7-4.25 17.28-4.25 9.7 0 17.24 2.95 22.64 8.85M330.89 39.25a10.25 10.25 0 1 1-20.5 0 10.25 10.25 0 0 1 20.5 0"/><path fill="#FFBA05" d="M79 1.87 13.04 29.16a4.42 4.42 0 0 0 .06 8.2l66.24 26.26c5.82 2.3 12.3 2.3 18.12 0l66.23-26.27a4.42 4.42 0 0 0 .06-8.19L97.8 1.86a24.58 24.58 0 0 0-18.8 0"/><path fill="#39CAFF" d="M94.27 77.96v65.62a4.42 4.42 0 0 0 6.05 4.1l73.8-28.64a4.42 4.42 0 0 0 2.8-4.11V49.3a4.42 4.42 0 0 0-6.05-4.1l-73.8 28.64a4.42 4.42 0 0 0-2.8 4.11"/><path fill="#DC043B" d="m77.04 81.35-21.9 10.57L52.9 93 6.67 115.15c-2.93 1.42-6.67-.72-6.67-3.98V49.6c0-1.18.6-2.2 1.41-2.96.34-.34.73-.62 1.12-.84a4.71 4.71 0 0 1 4.02-.31l70.12 27.78c3.56 1.41 3.84 6.4.37 8.09"/><path fill="rgba(0, 0, 0, 0.25)" d="m77.04 81.35-21.9 10.57L1.4 46.62c.34-.33.73-.61 1.12-.83a4.71 4.71 0 0 1 4.02-.31l70.12 27.78c3.56 1.41 3.84 6.4.37 8.09"/></svg>